<svg width="194" height="104" viewBox="0 0 194 104" fill="none" xmlns="http://www.w3.org/2000/svg">
<path d="M80.829 40.2007C80.829 32.9714 78.2344 25.9801 73.4954 20.5117C79.0551 18.9626 82.3116 13.216 80.7627 7.6549C79.2142 2.09376 73.469 -1.16349 67.909 0.385685C63.3818 1.64357 60.2444 5.77468 60.2577 10.4884C60.2711 10.8724 60.3108 11.2564 60.3636 11.6404C44.6505 6.25137 27.5475 14.6063 22.1465 30.3231C22.0008 30.7337 21.8687 31.1575 21.7494 31.581C18.1356 27.0792 11.5565 26.3641 7.0689 29.979C2.58134 33.5936 1.85327 40.1744 5.46715 44.663C9.08101 49.1516 15.6602 49.88 20.1476 46.2651C20.4389 46.0401 20.7036 45.7884 20.9684 45.537C23.5366 59.9164 36.0461 70.39 50.6472 70.39C52.5666 70.39 54.473 70.2046 56.3526 69.8472C55.8497 71.0785 55.5848 72.3893 55.5848 73.7265C55.5584 79.5129 60.218 84.2266 66.0029 84.2529C71.7878 84.2795 76.5003 79.6189 76.5267 73.8325C76.5533 69.3175 73.6675 65.2923 69.3917 63.8489C76.6194 58.1157 80.829 49.4163 80.829 40.2007ZM43.1283 52.4089V28.2045L64.0304 40.3067L43.1283 52.4089Z" fill="#F3F3F3"/>
<path d="M94.2705 68.7811C92.4484 68.7811 90.885 68.4071 89.5802 67.6591C88.2831 66.9111 87.2857 65.8714 86.5884 64.54C85.8911 63.2011 85.5424 61.6528 85.5424 59.895C85.5424 58.1297 85.8911 56.5814 86.5884 55.2501C87.2933 53.9111 88.2943 52.8677 89.5916 52.1197C90.8963 51.3716 92.4522 50.9976 94.2593 50.9976C95.8565 50.9976 97.2474 51.2857 98.4322 51.8616C99.6244 52.4376 100.554 53.2529 101.222 54.3075C101.896 55.3547 102.253 56.5852 102.29 57.9988H97.1499C97.045 57.1163 96.745 56.4243 96.2501 55.9232C95.7628 55.422 95.1253 55.1715 94.3381 55.1715C93.7007 55.1715 93.142 55.351 92.6622 55.71C92.1822 56.0615 91.8073 56.5852 91.5374 57.2808C91.2749 57.9689 91.1437 58.8216 91.1437 59.8388C91.1437 60.8562 91.2749 61.7164 91.5374 62.4195C91.8073 63.1151 92.1822 63.6423 92.6622 64.0015C93.142 64.353 93.7007 64.5287 94.3381 64.5287C94.8479 64.5287 95.2978 64.4204 95.6878 64.2034C96.0852 63.9865 96.4114 63.6685 96.6664 63.2498C96.9212 62.8234 97.0825 62.3072 97.1499 61.7013H102.29C102.238 63.1226 101.882 64.3641 101.222 65.4264C100.569 66.4885 99.6507 67.315 98.466 67.9059C97.2888 68.4894 95.8902 68.7811 94.2705 68.7811ZM105.105 68.4557V51.2221H110.447V54.3637H110.628C110.942 53.2267 111.456 52.3815 112.168 51.8279C112.881 51.267 113.709 50.9864 114.654 50.9864C114.909 50.9864 115.172 51.0051 115.441 51.0425C115.711 51.0725 115.963 51.1211 116.195 51.1884V55.9569C115.933 55.8671 115.588 55.796 115.16 55.7437C114.74 55.6913 114.366 55.6651 114.036 55.6651C113.383 55.6651 112.794 55.811 112.27 56.1027C111.752 56.3869 111.344 56.7871 111.044 57.3032C110.751 57.8119 110.605 58.4102 110.605 59.0983V68.4557H105.105ZM122.657 68.7474C121.555 68.7474 120.576 68.5642 119.721 68.1977C118.874 67.8237 118.203 67.2626 117.708 66.5147C117.22 65.7592 116.977 64.8131 116.977 63.676C116.977 62.7186 117.146 61.9108 117.483 61.2526C117.82 60.5943 118.285 60.0596 118.878 59.6482C119.47 59.2368 120.152 58.9264 120.925 58.7169C121.697 58.5 122.522 58.3541 123.399 58.2794C124.382 58.1896 125.173 58.0961 125.772 57.9988C126.372 57.8942 126.807 57.7483 127.077 57.5612C127.355 57.3668 127.493 57.0937 127.493 56.7423V56.6862C127.493 56.1102 127.295 55.6651 126.897 55.351C126.5 55.0368 125.964 54.8797 125.289 54.8797C124.561 54.8797 123.977 55.0368 123.534 55.351C123.092 55.6651 122.811 56.0989 122.691 56.6525L117.618 56.4729C117.768 55.4258 118.154 54.4907 118.776 53.6679C119.406 52.8378 120.269 52.1869 121.363 51.7158C122.466 51.2371 123.789 50.9976 125.334 50.9976C126.436 50.9976 127.452 51.1286 128.382 51.3903C129.312 51.6447 130.122 52.0187 130.811 52.5124C131.501 52.9985 132.033 53.597 132.408 54.3075C132.791 55.0181 132.982 55.8297 132.982 56.7423V68.4557H127.808V66.0546H127.673C127.366 66.6381 126.972 67.1317 126.492 67.5356C126.02 67.9396 125.461 68.2426 124.816 68.4445C124.179 68.6464 123.459 68.7474 122.657 68.7474ZM124.355 65.157C124.948 65.157 125.48 65.0374 125.952 64.798C126.432 64.5587 126.815 64.2296 127.1 63.8107C127.385 63.3843 127.527 62.8906 127.527 62.3297V60.6916C127.37 60.7739 127.178 60.8487 126.953 60.9159C126.736 60.9834 126.496 61.0469 126.234 61.1067C125.971 61.1666 125.701 61.2189 125.424 61.2638C125.146 61.3086 124.88 61.3498 124.625 61.3872C124.108 61.4695 123.666 61.5967 123.298 61.7687C122.938 61.9407 122.661 62.1651 122.466 62.4419C122.278 62.7112 122.184 63.0328 122.184 63.4068C122.184 63.9753 122.387 64.409 122.792 64.7083C123.204 65.0075 123.725 65.157 124.355 65.157ZM146.165 51.2221V55.2612H135.052V51.2221H146.165ZM137.369 68.4557V50.3469C137.369 49.0156 137.62 47.9123 138.123 47.0371C138.624 46.1545 139.322 45.4963 140.214 45.0624C141.107 44.6211 142.137 44.4005 143.308 44.4005C144.072 44.4005 144.793 44.4603 145.467 44.5799C146.149 44.6922 146.656 44.7932 146.986 44.883L146.108 48.8996C145.906 48.8322 145.658 48.7761 145.365 48.7312C145.082 48.6865 144.811 48.664 144.556 48.664C143.911 48.664 143.469 48.8061 143.229 49.0904C142.989 49.3746 142.868 49.7635 142.868 50.2571V68.4557H137.369ZM158.563 51.2221V55.2612H147.663V51.2221H158.563ZM149.946 47.0932H155.447V63.0365C155.447 63.3731 155.5 63.6461 155.604 63.8556C155.716 64.0575 155.878 64.2034 156.088 64.2932C156.298 64.3755 156.549 64.4165 156.842 64.4165C157.052 64.4165 157.272 64.3978 157.506 64.3605C157.744 64.3156 157.925 64.2782 158.045 64.2483L158.877 68.2088C158.615 68.2836 158.243 68.3771 157.764 68.4894C157.292 68.6015 156.726 68.6726 156.066 68.7025C154.775 68.7624 153.669 68.6127 152.747 68.2537C151.832 67.8872 151.131 67.3188 150.644 66.5483C150.164 65.7779 149.932 64.8092 149.946 63.6425V47.0932ZM101.289 85.4461L96.2389 85.5808C96.1864 85.2218 96.044 84.9039 95.8115 84.6272C95.5791 84.3429 95.2754 84.1223 94.9004 83.9651C94.533 83.8006 94.1056 83.7184 93.6182 83.7184C92.9808 83.7184 92.4372 83.8454 91.9873 84.0998C91.5449 84.3541 91.3274 84.6982 91.3349 85.132C91.3274 85.4686 91.4624 85.7604 91.7398 86.0072C92.0248 86.254 92.5309 86.4523 93.2583 86.6018L96.5876 87.2302C98.3122 87.5593 99.5945 88.1052 100.434 88.8683C101.282 89.6311 101.709 90.641 101.717 91.8975C101.709 93.0793 101.357 94.1079 100.659 94.9831C99.9694 95.8581 99.0246 96.5388 97.8248 97.025C96.6251 97.5037 95.2528 97.7431 93.7082 97.7431C91.2412 97.7431 89.2953 97.2382 87.8706 96.2284C86.4534 95.2112 85.6436 93.8499 85.4412 92.1444L90.8738 92.0097C90.9938 92.6381 91.305 93.1169 91.8073 93.446C92.3097 93.7751 92.9508 93.9396 93.7306 93.9396C94.4355 93.9396 95.0092 93.8086 95.4516 93.5469C95.8939 93.2851 96.1189 92.9373 96.1265 92.5034C96.1189 92.1145 95.9465 91.8041 95.609 91.5723C95.2715 91.3328 94.743 91.1459 94.0231 91.0112L91.0087 90.439C89.2766 90.1248 87.9869 89.5452 87.1395 88.6999C86.2922 87.8472 85.8723 86.7626 85.8798 85.4461C85.8723 84.2942 86.1797 83.3107 86.8021 82.4954C87.4244 81.6726 88.3093 81.0443 89.4566 80.6105C90.6038 80.1766 91.9573 79.9597 93.517 79.9597C95.8565 79.9597 97.7012 80.4496 99.0509 81.4295C100.401 82.4018 101.147 83.7408 101.289 85.4461ZM104.424 103.88V80.1841H109.868V83.135H110.037C110.262 82.6113 110.581 82.1064 110.993 81.6202C111.413 81.1341 111.945 80.7376 112.59 80.431C113.243 80.1168 114.022 79.9597 114.93 79.9597C116.129 79.9597 117.251 80.2739 118.293 80.9021C119.343 81.5305 120.19 82.4991 120.835 83.8081C121.48 85.117 121.802 86.7851 121.802 88.8122C121.802 90.7643 121.491 92.3987 120.868 93.7152C120.254 95.0316 119.421 96.019 118.372 96.6772C117.329 97.3354 116.171 97.6645 114.896 97.6645C114.026 97.6645 113.273 97.5224 112.635 97.2381C111.998 96.9539 111.462 96.5799 111.027 96.1163C110.599 95.6525 110.269 95.155 110.037 94.6239H109.924V103.88H104.424ZM109.812 88.8008C109.812 89.7284 109.936 90.5362 110.183 91.2244C110.438 91.9126 110.802 92.4473 111.274 92.8288C111.754 93.2028 112.328 93.3898 112.995 93.3898C113.67 93.3898 114.244 93.2028 114.716 92.8288C115.188 92.4473 115.545 91.9126 115.785 91.2244C116.032 90.5362 116.156 89.7284 116.156 88.8008C116.156 87.8734 116.032 87.0693 115.785 86.3887C115.545 85.708 115.188 85.1806 114.716 84.8067C114.251 84.4327 113.678 84.2457 112.995 84.2457C112.32 84.2457 111.747 84.4289 111.274 84.7954C110.802 85.1619 110.438 85.6856 110.183 86.3662C109.936 87.0469 109.812 87.8584 109.812 88.8008ZM130.184 87.5892V97.4177H124.684V74.4396H130.004V83.3481H130.196C130.586 82.286 131.223 81.4557 132.107 80.8574C133 80.2589 134.091 79.9597 135.38 79.9597C136.596 79.9597 137.653 80.229 138.553 80.7676C139.453 81.2986 140.15 82.0503 140.645 83.0227C141.148 83.9951 141.394 85.132 141.388 86.4335V97.4177H135.887V87.5106C135.895 86.5533 135.655 85.8053 135.167 85.2667C134.68 84.7281 133.993 84.4588 133.109 84.4588C132.531 84.4588 132.022 84.586 131.579 84.8403C131.144 85.0871 130.803 85.4424 130.556 85.9062C130.316 86.37 130.192 86.931 130.184 87.5892ZM152.896 97.7431C151.089 97.7431 149.529 97.3878 148.217 96.6772C146.912 95.9591 145.908 94.9382 145.203 93.6142C144.505 92.2827 144.157 90.7008 144.157 88.8683C144.157 87.088 144.509 85.5322 145.214 84.2008C145.918 82.8619 146.912 81.8222 148.195 81.0817C149.476 80.3337 150.987 79.9597 152.728 79.9597C153.957 79.9597 155.083 80.1504 156.101 80.5319C157.122 80.9134 158.003 81.4781 158.745 82.2261C159.488 82.9741 160.065 83.8978 160.478 84.9973C160.889 86.0895 161.095 87.3424 161.095 88.7561V90.1248H146.081V86.9385H155.979C155.971 86.355 155.832 85.8351 155.562 85.3789C155.292 84.9226 154.92 84.5673 154.449 84.3131C153.983 84.0512 153.447 83.9204 152.84 83.9204C152.225 83.9204 151.674 84.0587 151.187 84.3354C150.7 84.6046 150.313 84.975 150.028 85.4461C149.743 85.9099 149.594 86.4373 149.578 87.0282V90.2707C149.578 90.9738 149.717 91.591 149.995 92.122C150.272 92.6456 150.665 93.0533 151.175 93.3449C151.686 93.6366 152.293 93.7825 152.997 93.7825C153.484 93.7825 153.928 93.7152 154.325 93.5805C154.722 93.446 155.063 93.2477 155.348 92.9859C155.633 92.7241 155.847 92.4024 155.989 92.021L161.04 92.1669C160.83 93.2963 160.368 94.2799 159.657 95.1176C158.951 95.9479 158.026 96.5949 156.877 97.0587C155.731 97.515 154.403 97.7431 152.896 97.7431ZM163.905 97.4177V80.1841H169.247V83.3257H169.428C169.742 82.1887 170.257 81.3435 170.968 80.79C171.681 80.229 172.51 79.9485 173.454 79.9485C173.709 79.9485 173.972 79.9672 174.241 80.0046C174.512 80.0346 174.762 80.0831 174.995 80.1504V84.9189C174.733 84.8291 174.388 84.758 173.96 84.7058C173.54 84.6534 173.165 84.6272 172.836 84.6272C172.184 84.6272 171.595 84.773 171.07 85.0648C170.552 85.349 170.143 85.7492 169.844 86.2652C169.551 86.7739 169.406 87.3722 169.406 88.0603V97.4177H163.905ZM184.415 97.7431C182.608 97.7431 181.048 97.3878 179.736 96.6772C178.431 95.9591 177.427 94.9382 176.722 93.6142C176.024 92.2827 175.676 90.7008 175.676 88.8683C175.676 87.088 176.028 85.5322 176.733 84.2008C177.437 82.8619 178.431 81.8222 179.714 81.0817C180.995 80.3337 182.506 79.9597 184.246 79.9597C185.476 79.9597 186.6 80.1504 187.62 80.5319C188.641 80.9134 189.522 81.4781 190.264 82.2261C191.007 82.9741 191.584 83.8978 191.997 84.9973C192.408 86.0895 192.614 87.3424 192.614 88.7561V90.1248H177.598V86.9385H187.496C187.49 86.355 187.351 85.8351 187.081 85.3789C186.811 84.9226 186.439 84.5673 185.967 84.3131C185.502 84.0512 184.966 83.9204 184.359 83.9204C183.744 83.9204 183.193 84.0587 182.706 84.3354C182.217 84.6046 181.832 84.975 181.547 85.4461C181.262 85.9099 181.112 86.4373 181.097 87.0282V90.2707C181.097 90.9738 181.236 91.591 181.513 92.122C181.791 92.6456 182.184 93.0533 182.694 93.3449C183.205 93.6366 183.812 93.7825 184.516 93.7825C185.003 93.7825 185.446 93.7152 185.844 93.5805C186.241 93.446 186.582 93.2477 186.867 92.9859C187.152 92.7241 187.366 92.4024 187.508 92.021L192.559 92.1669C192.349 93.2963 191.887 94.2799 191.174 95.1176C190.47 95.9479 189.545 96.5949 188.396 97.0587C187.25 97.515 185.922 97.7431 184.415 97.7431Z" fill="#F3F3F3"/>
</svg>
