<svg width="20" height="12" viewBox="0 0 20 12" fill="none" xmlns="http://www.w3.org/2000/svg">
<path d="M1 0C0.802219 0 0.60888 0.0586491 0.44443 0.16853C0.279981 0.278412 0.151809 0.434591 0.0761209 0.617317C0.000433281 0.800043 -0.0193701 1.00111 0.0192152 1.19509C0.0578004 1.38907 0.153041 1.56725 0.292894 1.70711C0.432746 1.84696 0.610929 1.9422 0.80491 1.98079C0.998891 2.01937 1.19996 1.99957 1.38268 1.92388C1.56541 1.84819 1.72159 1.72002 1.83147 1.55557C1.94135 1.39112 2 1.19778 2 1C2 0.734784 1.89464 0.48043 1.70711 0.292893C1.51957 0.105357 1.26522 0 1 0ZM5 2H19C19.2652 2 19.5196 1.89464 19.7071 1.70711C19.8946 1.51957 20 1.26522 20 1C20 0.734784 19.8946 0.48043 19.7071 0.292893C19.5196 0.105357 19.2652 0 19 0H5C4.73478 0 4.48043 0.105357 4.29289 0.292893C4.10536 0.48043 4 0.734784 4 1C4 1.26522 4.10536 1.51957 4.29289 1.70711C4.48043 1.89464 4.73478 2 5 2ZM5 5C4.80222 5 4.60888 5.05865 4.44443 5.16853C4.27998 5.27841 4.15181 5.43459 4.07612 5.61732C4.00043 5.80004 3.98063 6.00111 4.01922 6.19509C4.0578 6.38907 4.15304 6.56725 4.29289 6.70711C4.43275 6.84696 4.61093 6.9422 4.80491 6.98079C4.99889 7.01937 5.19996 6.99957 5.38268 6.92388C5.56541 6.84819 5.72159 6.72002 5.83147 6.55557C5.94135 6.39112 6 6.19778 6 6C6 5.73478 5.89464 5.48043 5.70711 5.29289C5.51957 5.10536 5.26522 5 5 5ZM9 10C8.80222 10 8.60888 10.0586 8.44443 10.1685C8.27998 10.2784 8.15181 10.4346 8.07612 10.6173C8.00043 10.8 7.98063 11.0011 8.01922 11.1951C8.0578 11.3891 8.15304 11.5673 8.29289 11.7071C8.43275 11.847 8.61093 11.9422 8.80491 11.9808C8.99889 12.0194 9.19996 11.9996 9.38268 11.9239C9.56541 11.8482 9.72159 11.72 9.83147 11.5556C9.94135 11.3911 10 11.1978 10 11C10 10.7348 9.89464 10.4804 9.70711 10.2929C9.51957 10.1054 9.26522 10 9 10ZM19 5H9C8.73478 5 8.48043 5.10536 8.29289 5.29289C8.10536 5.48043 8 5.73478 8 6C8 6.26522 8.10536 6.51957 8.29289 6.70711C8.48043 6.89464 8.73478 7 9 7H19C19.2652 7 19.5196 6.89464 19.7071 6.70711C19.8946 6.51957 20 6.26522 20 6C20 5.73478 19.8946 5.48043 19.7071 5.29289C19.5196 5.10536 19.2652 5 19 5ZM19 10H13C12.7348 10 12.4804 10.1054 12.2929 10.2929C12.1054 10.4804 12 10.7348 12 11C12 11.2652 12.1054 11.5196 12.2929 11.7071C12.4804 11.8946 12.7348 12 13 12H19C19.2652 12 19.5196 11.8946 19.7071 11.7071C19.8946 11.5196 20 11.2652 20 11C20 10.7348 19.8946 10.4804 19.7071 10.2929C19.5196 10.1054 19.2652 10 19 10Z" fill="#F3F3F3"/>
</svg>
