<svg width="24" height="24" viewBox="0 0 24 24" fill="none" xmlns="http://www.w3.org/2000/svg">
<path fill-rule="evenodd" clip-rule="evenodd" d="M11.438 3C10.816 3 10.312 3.504 10.312 4.125L10.177 5.07C10.1493 5.26331 10.0718 5.44608 9.95205 5.60034C9.83231 5.75461 9.67447 5.87504 9.49407 5.94981C9.31367 6.02457 9.11691 6.05109 8.92315 6.02675C8.72939 6.00241 8.54531 5.92806 8.389 5.811L7.625 5.238C7.52053 5.13353 7.39651 5.05066 7.26002 4.99413C7.12353 4.93759 6.97724 4.90849 6.8295 4.90849C6.68176 4.90849 6.53547 4.93759 6.39898 4.99413C6.26249 5.05066 6.13847 5.13353 6.034 5.238L5.238 6.034C4.798 6.474 4.798 7.185 5.238 7.624L5.811 8.389C5.92804 8.54524 6.00241 8.72925 6.0268 8.92294C6.05119 9.11662 6.02476 9.31333 5.95011 9.4937C5.87546 9.67408 5.75515 9.83193 5.60101 9.95174C5.44688 10.0715 5.26422 10.1492 5.071 10.177L4.125 10.313C3.504 10.313 3 10.816 3 11.437V12.563C3 13.183 3.504 13.687 4.125 13.687L5.07 13.823C5.26331 13.8507 5.44608 13.9282 5.60034 14.0479C5.75461 14.1677 5.87504 14.3255 5.94981 14.5059C6.02457 14.6863 6.05109 14.8831 6.02675 15.0768C6.00241 15.2706 5.92806 15.4547 5.811 15.611L5.238 16.375C4.798 16.815 4.798 17.527 5.238 17.966L6.034 18.762C6.474 19.202 7.185 19.202 7.624 18.762L8.389 18.189C8.54524 18.072 8.72925 17.9976 8.92294 17.9732C9.11662 17.9488 9.31333 17.9752 9.4937 18.0499C9.67408 18.1245 9.83193 18.2449 9.95174 18.399C10.0715 18.5531 10.1492 18.7358 10.177 18.929L10.313 19.875C10.313 20.496 10.816 21 11.437 21H12.563C13.183 21 13.687 20.496 13.687 19.875L13.823 18.93C13.8507 18.7367 13.9282 18.5539 14.0479 18.3997C14.1677 18.2454 14.3255 18.125 14.5059 18.0502C14.6863 17.9754 14.8831 17.9489 15.0768 17.9732C15.2706 17.9976 15.4547 18.0719 15.611 18.189L16.375 18.762C16.815 19.202 17.527 19.202 17.966 18.762L18.762 17.966C19.201 17.526 19.201 16.815 18.762 16.376L18.189 15.611C18.072 15.4548 17.9976 15.2708 17.9732 15.0771C17.9488 14.8834 17.9752 14.6867 18.0499 14.5063C18.1245 14.3259 18.2449 14.1681 18.399 14.0483C18.5531 13.9285 18.7358 13.8508 18.929 13.823L19.875 13.687C20.496 13.687 21 13.184 21 12.563V11.437C21 10.817 20.496 10.313 19.875 10.313L18.93 10.177C18.7367 10.1493 18.5539 10.0718 18.3997 9.95205C18.2454 9.83231 18.125 9.67447 18.0502 9.49407C17.9754 9.31367 17.9489 9.11691 17.9732 8.92315C17.9976 8.72939 18.0719 8.54531 18.189 8.389L18.762 7.625C19.201 7.185 19.201 6.473 18.762 6.034L17.966 5.238C17.7551 5.02732 17.4691 4.90899 17.171 4.90899C16.8729 4.90899 16.5869 5.02732 16.376 5.238L15.611 5.811C15.4548 5.92804 15.2708 6.00241 15.0771 6.0268C14.8834 6.05119 14.6867 6.02476 14.5063 5.95011C14.3259 5.87546 14.1681 5.75515 14.0483 5.60101C13.9285 5.44688 13.8508 5.26422 13.823 5.071L13.687 4.125C13.687 3.504 13.184 3 12.563 3H11.438ZM12 14.25C12.5967 14.25 13.169 14.0129 13.591 13.591C14.0129 13.169 14.25 12.5967 14.25 12C14.25 11.4033 14.0129 10.831 13.591 10.409C13.169 9.98705 12.5967 9.75 12 9.75C11.4033 9.75 10.831 9.98705 10.409 10.409C9.98705 10.831 9.75 11.4033 9.75 12C9.75 12.5967 9.98705 13.169 10.409 13.591C10.831 14.0129 11.4033 14.25 12 14.25Z" fill="#F3F3F3"/>
</svg>
