<svg xmlns="http://www.w3.org/2000/svg" xmlns:xlink="http://www.w3.org/1999/xlink" viewBox="0 0 131.27 88.23"><defs><style>.cls-1{fill:url(#linear-gradient);}</style><linearGradient id="linear-gradient" x1="87.52" y1="88.23" x2="87.52" y2="36.96" gradientUnits="userSpaceOnUse"><stop offset="0" stop-color="#fb1446"/><stop offset="0.15" stop-color="#fd1239"/><stop offset="0.27" stop-color="#ff102c"/><stop offset="1" stop-color="#ff4d00"/></linearGradient></defs><g id="Layer_2" data-name="Layer 2"><g id="Layer_2-2" data-name="Layer 2"><path d="M32.34,39.64a8.31,8.31,0,0,1,6.81-3.13c5.26,0,8.94,2.77,8.94,10.76V59.38H41.55V47.31c0-3.13-1.68-4.85-4.26-4.85s-5,1.86-5,5.49V59.38H25.76v-29h6.58Z"/><path d="M76.76,37V59.38h-5.9l-.36-2.81c-1.45,2.54-4.72,3.49-6.9,3.49C56.89,60.06,52,55.57,52,48.17s5-11.7,11.43-11.7c3,0,5.68,1,6.95,3.08L70.63,37Zm-18.2,11.2a5.62,5.62,0,0,0,5.9,5.9,5.79,5.79,0,0,0,6-5.67c0-3.22-2.09-6.17-6-6.17A5.66,5.66,0,0,0,58.56,48.17Z"/><path d="M115.66,45.77l6.63-8.67H130v.41l-8.21,10,9.48,11.34v.5h-7.85l-7.76-9.84v9.84h-6.53V37h6.53Z"/><path d="M12.25,32.35C5.72,32.35,0,28.63,0,20.56,0,13,5.67,8.71,12.21,8.71c3.26,0,5.8.68,8.12,3.18L16.7,16a6.69,6.69,0,0,0-4.22-1.32,5.56,5.56,0,0,0-5.9,5.86,5.48,5.48,0,0,0,5.76,5.62,7,7,0,0,0,4.54-1.68L21,28.77A11.44,11.44,0,0,1,12.25,32.35Z"/><path d="M32.3,12.43a6.75,6.75,0,0,1,6-3,8,8,0,0,1,5.49,2l-2.72,5.17a5.94,5.94,0,0,0-3.59-1.13,4.93,4.93,0,0,0-5.21,5.17v4.9H25.72V10H31.8Z"/><path d="M69.19,9.94V32.35h-5.9l-.36-2.81C61.47,32.08,58.21,33,56,33c-6.72,0-11.57-4.49-11.57-11.88s5-11.71,11.43-11.71c3,0,5.67,1,6.94,3.08l.23-2.58ZM51,21.15A5.61,5.61,0,0,0,56.89,27a5.78,5.78,0,0,0,5.94-5.67c0-3.22-2.08-6.17-5.94-6.17A5.65,5.65,0,0,0,51,21.15Z"/><path d="M76.94,15.7H73V10.21h4V9c0-6.49,4.67-9,9.08-9a10.68,10.68,0,0,1,6.21,1.91L90,6.49a5.84,5.84,0,0,0-3.22-.91c-2,0-3.32,1.09-3.32,3.45v1.18h6.22V15.7H83.47V32.35H76.94Z"/><path d="M103.12,10.07h5.68v5.45h-5.72v8.62c0,2.36,1.31,3,2.54,3a7.13,7.13,0,0,0,2.72-.54l1.5,5.44a13.79,13.79,0,0,1-4.72,1c-4.85.23-8.53-1.9-8.53-8.89V15.52h-4V10.07h4V4.54l6.53-.73Z"/><path class="cls-1" d="M96.23,54.13,90.5,50.2l.55-6.93,9.24-4.41a11.6,11.6,0,0,0-13.84.83l-.15.12a11.54,11.54,0,0,0-.93.92l-.18.2a10.59,10.59,0,0,0-.66.84c-.15.22-.3.44-.43.66l-.21.34c-.16.28-.31.56-.44.85h0a11.56,11.56,0,0,0,2.35,13.14L74,77.31c-.13,0-.26,0-.38.06a5.53,5.53,0,0,0-1.3,10.13h0A5.53,5.53,0,0,0,80,80.18L91.62,59.89l.51.12.34,0c.27,0,.55.07.83.09a8.42,8.42,0,0,0,.87,0l.54,0A9.65,9.65,0,0,0,95.9,60l.24,0a10.38,10.38,0,0,0,1.33-.34h0A14.34,14.34,0,0,0,98.92,59a11.61,11.61,0,0,0,6.55-9.31ZM77.69,84.19a3,3,0,1,1-1.11-4.09h0A3,3,0,0,1,77.69,84.19Z"/></g></g></svg>